<?xml version="1.0" standalone="no"?>
<!DOCTYPE svg PUBLIC "-//W3C//DTD SVG 20010904//EN"
 "http://www.w3.org/TR/2001/REC-SVG-20010904/DTD/svg10.dtd">
<svg version="1.0" xmlns="http://www.w3.org/2000/svg"
 width="415.000000pt" height="415.000000pt" viewBox="0 0 415.000000 415.000000"
 preserveAspectRatio="xMidYMid meet">
<metadata>
Created by potrace 1.14, written by Peter Selinger 2001-2017
</metadata>
<g transform="translate(0.000000,415.000000) scale(0.100000,-0.100000)"
fill="#000000" stroke="none">
<path d="M2000 3872 c-186 -90 -442 -212 -445 -212 -2 0 -83 -39 -181 -86 -99
-47 -210 -101 -249 -119 -78 -37 -179 -84 -369 -174 -70 -34 -132 -61 -137
-61 -8 0 -6 -533 5 -1370 3 -173 12 -210 87 -369 98 -204 281 -445 468 -615
19 -17 41 -38 50 -47 105 -104 399 -314 601 -430 114 -65 241 -129 256 -129
47 0 403 209 577 338 206 153 401 335 522 487 49 62 67 84 80 99 6 7 15 19 20
28 6 9 25 37 43 62 17 26 32 49 32 51 0 2 11 21 25 42 14 20 52 89 83 153 l57
115 3 793 4 792 -94 44 c-51 24 -138 65 -193 91 -55 26 -140 67 -190 90 -49
23 -148 71 -220 105 -71 34 -170 82 -220 105 -49 24 -148 71 -220 105 -170 82
-316 150 -318 149 -1 0 -36 -17 -77 -37z"/>
</g>
</svg>
